<svg width="76" height="76" viewBox="0 0 76 76" fill="none" xmlns="http://www.w3.org/2000/svg">
<ellipse cx="37.9975" cy="38" rx="37.9987" ry="38" fill="#DFFCF0"/>
<path d="M40.7206 37.841C44.8673 37.841 48.2403 34.4673 48.2403 30.3205C48.2403 26.1737 44.8673 22.8 40.7206 22.8C36.574 22.8 33.2004 26.1737 33.2004 30.3205C33.2004 34.4673 36.574 37.841 40.7206 37.841ZM39.8301 25.9V25.6958C39.8301 25.2036 40.2284 24.8051 40.7206 24.8051C41.2123 24.8051 41.6112 25.2036 41.6112 25.6958V25.9012C42.6711 26.1286 43.4684 27.0727 43.4684 28.1996C43.4684 28.6913 43.0695 29.0903 42.5778 29.0903C42.0856 29.0903 41.6872 28.6913 41.6872 28.1996C41.6872 27.8855 41.4313 27.6296 41.1173 27.6296H40.3187C40.0046 27.6296 39.7487 27.8855 39.7487 28.1996C39.7487 28.3795 39.8348 28.5505 39.9797 28.6574L40.7206 29.206L42.5208 30.5384C43.1122 30.976 43.4684 31.676 43.4732 32.4123V32.4206C43.4773 33.0488 43.2369 33.6414 42.7951 34.0885C42.4674 34.4204 42.0577 34.643 41.6112 34.7368V34.9452C41.6112 35.4375 41.2123 35.8359 40.7206 35.8359C40.2284 35.8359 39.8301 35.4375 39.8301 34.9452V34.7398C39.3954 34.6472 38.9959 34.4334 38.6729 34.114C38.2258 33.6728 37.9776 33.0838 37.974 32.4556C37.9711 31.964 38.3671 31.5626 38.8587 31.5597H38.8646C39.3539 31.5597 39.7523 31.9551 39.7552 32.445C39.7564 32.7523 40.0037 33.0114 40.3282 33.0114C40.8203 33.0084 40.637 33.0095 41.1256 33.0066C41.4417 33.0041 41.6944 32.7476 41.692 32.4325V32.4242C41.6908 32.246 41.6047 32.0762 41.461 31.97L40.7206 31.4219L38.9199 30.0895C38.3238 29.6478 37.9675 28.9412 37.9675 28.1996C37.9675 27.0703 38.7673 26.1257 39.8301 25.9Z" fill="#34C759"/>
<path d="M28.5359 42.1204C28.3076 41.7246 27.8005 41.5869 27.4023 41.8166L23.213 44.235C22.8164 44.4646 22.6803 44.972 22.9093 45.3692L27.1909 52.7853C27.4201 53.1818 27.9272 53.318 28.3245 53.089L32.5138 50.6701C32.9111 50.441 33.0466 49.9336 32.8176 49.5364L28.5359 42.1204Z" fill="#34C759"/>
<path d="M52.5403 40.6398C52.1371 40.0799 51.357 39.9534 50.7977 40.3566C49.1008 41.5791 45.8424 43.9268 45.5835 44.1138C45.4642 44.2154 45.3389 44.3074 45.2083 44.3888C44.6959 44.7112 44.1016 44.8834 43.4811 44.8834H39.2151C38.7235 44.8834 38.3245 44.4849 38.3245 43.9927C38.3245 43.4999 38.7241 43.1021 39.2151 43.1021H43.7774C44.4477 43.1021 44.9844 42.544 44.9565 41.8724C44.9304 41.2353 44.3865 40.7413 43.7489 40.7413H40.2761C40.041 40.4926 39.7833 40.2646 39.5073 40.0609C38.5579 39.3609 37.3847 38.947 36.1147 38.947C33.8567 38.947 31.61 40.3697 30.6785 42.2685L34.3216 48.5783H41.1555C42.4973 48.5783 43.8189 48.2351 44.9821 47.5659C45.3852 47.3344 45.8169 47.0559 46.2847 46.7198C48.2452 45.3114 52.2535 42.3854 52.2565 42.3837C52.817 41.9811 52.944 41.1997 52.5403 40.6398Z" fill="#34C759"/>
</svg>
