<svg width="261" height="88" viewBox="0 0 261 88" fill="none" xmlns="http://www.w3.org/2000/svg">
<g clip-path="url(#clip0_6101_5632)">
<path d="M23.7538 42.6108L1.8433 12.6742C0.778175 11.2116 0 9.45548 0 7.31295C0 3.31651 3.29752 0.0978321 7.46562 0.0978321C10.8604 0.0978321 12.9907 1.95175 14.834 4.68127L31.3167 28.5719L48.0864 4.4856C49.9297 1.75609 52.1572 0 55.2602 0C59.8174 0 62.5312 3.21868 62.5312 7.31295C62.5312 9.36253 61.5634 11.2116 60.5907 12.5763L38.6802 42.3173V62.0158C38.6802 66.2079 35.3827 69.5244 31.2146 69.5244C27.0465 69.5244 23.7489 66.2079 23.7489 62.0158V42.6108H23.7538Z" fill="#FFCF21"/>
<path d="M61.7578 53.9251V53.7294C61.7578 42.3222 70.3858 37.0539 82.7005 37.0539C87.9337 37.0539 91.7176 37.9295 95.3993 39.2013V38.3257C95.3993 32.1819 91.6203 28.7675 84.2519 28.7675C80.1811 28.7675 76.8836 29.3545 74.0724 30.2301C73.2019 30.5236 72.6182 30.6215 71.9373 30.6215C68.5425 30.6215 65.8286 27.9898 65.8286 24.5754C65.8286 21.9437 67.4774 19.6985 69.8022 18.8229C74.4567 17.0668 79.4953 16.0934 86.3822 16.0934C94.4314 16.0934 100.248 18.2408 103.93 21.9437C107.806 25.8424 109.552 31.5949 109.552 38.6192V62.412C109.552 66.4084 106.352 69.5293 102.379 69.5293C98.1132 69.5293 95.302 66.5063 95.302 63.3854V63.2876C91.7127 67.284 86.7713 69.9157 79.5975 69.9157C69.8071 69.9157 61.7578 64.261 61.7578 53.9251ZM95.5938 50.5107V47.879C93.0745 46.7099 89.777 45.9273 86.1877 45.9273C79.8844 45.9273 76.0081 48.4611 76.0081 53.1424V53.3381C76.0081 57.3345 79.3057 59.6776 84.0525 59.6776C90.9345 59.6776 95.589 55.8768 95.589 50.5107H95.5938Z" fill="#F59D15"/>
<path d="M122.261 23.4993C122.261 19.405 125.559 16.0885 129.63 16.0885C133.7 16.0885 136.998 19.405 136.998 23.4993V24.0863C140.393 19.6985 144.853 15.7021 152.318 15.7021C159.103 15.7021 164.244 18.7251 166.958 23.9884C171.515 18.6272 176.943 15.7021 184.019 15.7021C194.977 15.7021 201.567 22.3302 201.567 34.9114V62.1185C201.567 66.2128 198.27 69.5293 194.199 69.5293C190.128 69.5293 186.83 66.2128 186.83 62.1185V39.7883C186.83 32.7689 183.727 29.1589 178.202 29.1589C172.677 29.1589 169.282 32.7689 169.282 39.7883V62.1185C169.282 66.2128 165.985 69.5293 161.914 69.5293C157.843 69.5293 154.546 66.2128 154.546 62.1185V39.7883C154.546 32.7689 151.443 29.1589 145.918 29.1589C140.393 29.1589 136.998 32.7689 136.998 39.7883V62.1185C136.998 66.2128 133.7 69.5293 129.63 69.5293C125.559 69.5293 122.261 66.2128 122.261 62.1185V23.4993Z" fill="#E77A14"/>
<path d="M216.595 83.4704C214.46 82.6926 211.941 80.9365 211.941 77.3265C211.941 73.7165 214.752 71.2805 217.758 71.2805C218.92 71.2805 219.601 71.4762 220.18 71.6718C221.44 72.0631 222.218 72.2588 223.283 72.2588C225.9 72.2588 227.159 71.7696 228.516 69.138L229.003 67.9689L211.26 26.625C210.871 25.6516 210.487 24.189 210.487 23.2107C210.487 19.0186 213.687 16.0934 217.758 16.0934C221.445 16.0934 223.575 18.143 224.834 21.6502L236.079 52.0711L246.939 21.7481C248.102 18.6272 250.237 16.0934 254.016 16.0934C257.795 16.0934 260.995 19.0186 260.995 22.9172C260.995 24.0863 260.606 25.7445 260.314 26.4293L242.183 70.2092C237.82 80.8387 233.458 84.8351 224.635 84.8351C221.337 84.8351 219.013 84.346 216.586 83.4704H216.595Z" fill="#CD5A05"/>
<path d="M27.9121 76.5341C27.9121 76.1623 28.2137 75.8395 28.5833 75.8395C28.9529 75.8395 29.2739 76.1428 29.2739 76.5341V78.2608C29.9451 76.7346 31.2729 75.8101 32.4207 75.8101C32.8292 75.8101 33.0918 76.1134 33.0918 76.5047C33.0918 76.8961 32.8438 77.1455 32.4888 77.1993C30.7233 77.4146 29.2739 78.7451 29.2739 81.3914V84.5172C29.2739 84.8889 28.9918 85.2118 28.6027 85.2118C28.2137 85.2118 27.9121 84.9085 27.9121 84.5172V76.539V76.5341Z" fill="black"/>
<path d="M42.8967 84.5123C42.8967 84.8841 42.6147 85.2069 42.2256 85.2069C41.8365 85.2069 41.5544 84.9036 41.5544 84.5123V83.5193C40.9367 84.5123 39.998 85.3145 38.4271 85.3145C36.219 85.3145 34.9302 83.8226 34.9302 81.636V76.5341C34.9302 76.1428 35.2123 75.8395 35.6014 75.8395C35.9904 75.8395 36.292 76.1428 36.292 76.5341V81.2985C36.292 83.0057 37.2112 84.0721 38.8211 84.0721C40.4309 84.0721 41.5593 82.9176 41.5593 81.1958V76.539C41.5593 76.1477 41.8413 75.8444 42.2304 75.8444C42.6195 75.8444 42.9016 76.1477 42.9016 76.539V84.5172L42.8967 84.5123Z" fill="black"/>
<path d="M46.4327 82.6828V77.1406H45.6885C45.3724 77.1406 45.0854 76.8569 45.0854 76.5341C45.0854 76.1966 45.3675 75.9324 45.6885 75.9324H46.4327V73.7654C46.4327 73.3937 46.7148 73.0708 47.1038 73.0708C47.4929 73.0708 47.7945 73.3888 47.7945 73.7654V75.9324H50.163C50.4986 75.9324 50.7807 76.2161 50.7807 76.5341C50.7807 76.8716 50.4986 77.1406 50.163 77.1406H47.7945V82.5067C47.7945 83.6269 48.4122 84.0329 49.3314 84.0329C49.808 84.0329 50.056 83.9106 50.163 83.9106C50.4792 83.9106 50.7467 84.1748 50.7467 84.4976C50.7467 84.7471 50.5862 84.9428 50.3576 85.0308C49.9685 85.1922 49.5454 85.2803 49.0152 85.2803C47.5464 85.2803 46.4375 84.5514 46.4375 82.6877L46.4327 82.6828Z" fill="black"/>
<path d="M52.4053 82.4529V82.4187C52.4053 80.4816 53.9957 79.4495 56.3107 79.4495C57.478 79.4495 58.3097 79.6109 59.1219 79.8408V79.5229C59.1219 77.8695 58.1151 77.0183 56.4031 77.0183C55.4839 77.0183 54.7058 77.2336 54.0346 77.532C53.947 77.5662 53.8595 77.5858 53.7865 77.5858C53.4704 77.5858 53.1834 77.3216 53.1834 76.9988C53.1834 76.7151 53.378 76.4998 53.5531 76.4314C54.4528 76.04 55.3721 75.8101 56.5393 75.8101C57.8282 75.8101 58.8204 76.1476 59.4915 76.8227C60.1092 77.4439 60.4302 78.3342 60.4302 79.5082V84.5368C60.4302 84.9281 60.1481 85.2118 59.7785 85.2118C59.4089 85.2118 59.1268 84.9281 59.1268 84.571V83.7345C58.4896 84.571 57.4294 85.3145 55.8244 85.3145C54.127 85.3145 52.415 84.3362 52.415 82.4529H52.4053ZM59.1365 81.7388V80.8485C58.4653 80.6528 57.5655 80.4571 56.4518 80.4571C54.7398 80.4571 53.7817 81.2056 53.7817 82.36V82.3942C53.7817 83.5486 54.8419 84.2237 56.0773 84.2237C57.7552 84.2237 59.1365 83.1916 59.1365 81.7339V81.7388Z" fill="black"/>
<path d="M62.8325 84.1405C62.7109 84.0525 62.5845 83.8764 62.5845 83.6416C62.5845 83.3236 62.8471 83.0546 63.1876 83.0546C63.3092 83.0546 63.4356 83.0888 63.5232 83.1622C64.4618 83.803 65.4297 84.1405 66.4219 84.1405C67.5162 84.1405 68.3138 83.5731 68.3138 82.6828V82.6486C68.3138 81.7241 67.2341 81.367 66.0328 81.0295C64.6029 80.6235 63.0125 80.1245 63.0125 78.4369V78.4027C63.0125 76.8227 64.3208 75.771 66.1203 75.771C67.093 75.771 68.1533 76.0743 69.0336 76.5537C69.2087 76.6613 69.3692 76.8569 69.3692 77.1211C69.3692 77.439 69.1066 77.7081 68.7661 77.7081C68.6445 77.7081 68.5375 77.6738 68.4646 77.6347C67.6864 77.1896 66.8547 76.9254 66.0814 76.9254C65.0017 76.9254 64.3159 77.4928 64.3159 78.2608V78.2951C64.3159 79.1658 65.4491 79.5033 66.665 79.8751C68.0803 80.3006 69.5978 80.8534 69.5978 82.5067V82.541C69.5978 84.2824 68.1679 85.295 66.344 85.295C65.1427 85.295 63.815 84.8498 62.8277 84.1405H62.8325Z" fill="black"/>
<path d="M77.662 86.9141C77.448 86.8065 77.307 86.5961 77.307 86.3467C77.307 86.0434 77.6085 85.745 77.9247 85.745C78.0462 85.745 78.1387 85.7792 78.2262 85.833C79.1795 86.4738 80.2738 86.826 81.4605 86.826C83.474 86.826 84.7823 85.7059 84.7823 83.5584V82.4725C83.9896 83.5389 82.8758 84.4096 81.193 84.4096C79.0044 84.4096 76.8984 82.7562 76.8984 80.1099V80.0756C76.8984 77.3901 79.019 75.7368 81.193 75.7368C82.905 75.7368 84.0187 76.5879 84.7629 77.5858V76.539C84.7629 76.1672 85.045 75.8444 85.434 75.8444C85.8231 75.8444 86.1247 76.1623 86.1247 76.539V83.5242C86.1247 84.9476 85.7015 86.0287 84.9574 86.7771C84.1452 87.594 82.9244 88.0049 81.4751 88.0049C80.0257 88.0049 78.805 87.6331 77.6572 86.9239L77.662 86.9141ZM84.8164 80.0903V80.056C84.8164 78.1728 83.1919 76.945 81.4605 76.945C79.7291 76.945 78.2992 78.1532 78.2992 80.0365V80.0707C78.2992 81.9197 79.768 83.1965 81.4605 83.1965C83.153 83.1965 84.8164 81.9344 84.8164 80.0854V80.0903Z" fill="black"/>
<path d="M88.4785 82.4529V82.4187C88.4785 80.4816 90.0689 79.4495 92.384 79.4495C93.5512 79.4495 94.3829 79.6109 95.1951 79.8408V79.5229C95.1951 77.8695 94.1884 77.0183 92.4764 77.0183C91.5572 77.0183 90.779 77.2336 90.1078 77.532C90.0203 77.5662 89.9327 77.5858 89.8598 77.5858C89.5436 77.5858 89.2567 77.3216 89.2567 76.9988C89.2567 76.7151 89.4512 76.4998 89.6263 76.4314C90.5261 76.04 91.4453 75.8101 92.6126 75.8101C93.9014 75.8101 94.8936 76.1476 95.5648 76.8227C96.1825 77.4439 96.5034 78.3342 96.5034 79.5082V84.5368C96.5034 84.9281 96.2214 85.2118 95.8517 85.2118C95.4821 85.2118 95.2 84.9281 95.2 84.571V83.7345C94.5629 84.571 93.5026 85.3145 91.8976 85.3145C90.2002 85.3145 88.4882 84.3362 88.4882 82.4529H88.4785ZM95.2097 81.7388V80.8485C94.5386 80.6528 93.6388 80.4571 92.525 80.4571C90.813 80.4571 89.8549 81.2056 89.8549 82.36V82.3942C89.8549 83.5486 90.9152 84.2237 92.1505 84.2237C93.8285 84.2237 95.2097 83.1916 95.2097 81.7339V81.7388Z" fill="black"/>
<path d="M98.9062 84.1405C98.7847 84.0525 98.6582 83.8764 98.6582 83.6416C98.6582 83.3236 98.9208 83.0546 99.2613 83.0546C99.3829 83.0546 99.5093 83.0888 99.5969 83.1622C100.536 83.803 101.503 84.1405 102.496 84.1405C103.59 84.1405 104.388 83.5731 104.388 82.6828V82.6486C104.388 81.7241 103.308 81.367 102.106 81.0295C100.677 80.6235 99.0862 80.1245 99.0862 78.4369V78.4027C99.0862 76.8227 100.395 75.771 102.194 75.771C103.167 75.771 104.227 76.0743 105.107 76.5537C105.282 76.6613 105.443 76.8569 105.443 77.1211C105.443 77.439 105.18 77.7081 104.84 77.7081C104.718 77.7081 104.611 77.6738 104.538 77.6347C103.76 77.1896 102.928 76.9254 102.155 76.9254C101.075 76.9254 100.39 77.4928 100.39 78.2608V78.2951C100.39 79.1658 101.523 79.5033 102.739 79.8751C104.154 80.3006 105.672 80.8534 105.672 82.5067V82.541C105.672 84.2824 104.242 85.295 102.418 85.295C101.216 85.295 99.8887 84.8498 98.9014 84.1405H98.9062Z" fill="black"/>
<path d="M108.502 82.6828V77.1406H107.758C107.442 77.1406 107.155 76.8569 107.155 76.5341C107.155 76.1966 107.437 75.9324 107.758 75.9324H108.502V73.7654C108.502 73.3937 108.784 73.0708 109.173 73.0708C109.562 73.0708 109.864 73.3888 109.864 73.7654V75.9324H112.232C112.568 75.9324 112.85 76.2161 112.85 76.5341C112.85 76.8716 112.568 77.1406 112.232 77.1406H109.864V82.5067C109.864 83.6269 110.481 84.0329 111.401 84.0329C111.877 84.0329 112.125 83.9106 112.232 83.9106C112.549 83.9106 112.816 84.1748 112.816 84.4976C112.816 84.7471 112.656 84.9428 112.427 85.0308C112.038 85.1922 111.615 85.2803 111.085 85.2803C109.616 85.2803 108.507 84.5514 108.507 82.6877L108.502 82.6828Z" fill="black"/>
<path d="M115.165 76.5341C115.165 76.1623 115.467 75.8395 115.836 75.8395C116.206 75.8395 116.527 76.1428 116.527 76.5341V78.2608C117.198 76.7346 118.526 75.8101 119.674 75.8101C120.082 75.8101 120.345 76.1134 120.345 76.5047C120.345 76.8961 120.097 77.1455 119.742 77.1993C117.976 77.4146 116.527 78.7451 116.527 81.3914V84.5172C116.527 84.8889 116.245 85.2118 115.856 85.2118C115.467 85.2118 115.165 84.9085 115.165 84.5172V76.539V76.5341Z" fill="black"/>
<path d="M121.366 80.5697V80.5354C121.366 77.9429 123.38 75.7368 126.137 75.7368C128.895 75.7368 130.889 77.9037 130.889 80.5012V80.5354C130.889 83.128 128.856 85.3341 126.098 85.3341C123.341 85.3341 121.361 83.1671 121.361 80.5697H121.366ZM129.493 80.5697V80.5354C129.493 78.5641 128.024 76.945 126.098 76.945C124.172 76.945 122.757 78.5641 122.757 80.5012V80.5354C122.757 82.5067 124.207 84.1063 126.133 84.1063C128.058 84.1063 129.488 82.5067 129.488 80.5697H129.493Z" fill="black"/>
<path d="M133.35 76.5341C133.35 76.1623 133.652 75.8395 134.021 75.8395C134.391 75.8395 134.712 76.1428 134.712 76.5341V77.532C135.315 76.5341 136.268 75.7368 137.839 75.7368C140.047 75.7368 141.336 77.2287 141.336 79.4152V84.5172C141.336 84.9085 141.035 85.2118 140.665 85.2118C140.295 85.2118 139.974 84.9085 139.974 84.5172V79.7528C139.974 78.0456 139.055 76.9792 137.445 76.9792C135.835 76.9792 134.707 78.1336 134.707 79.8604V84.5172C134.707 84.9085 134.425 85.2118 134.036 85.2118C133.647 85.2118 133.345 84.9085 133.345 84.5172V76.539L133.35 76.5341Z" fill="black"/>
<path d="M143.67 80.5697V80.5354C143.67 77.9429 145.684 75.7368 148.442 75.7368C151.199 75.7368 153.193 77.9037 153.193 80.5012V80.5354C153.193 83.128 151.16 85.3341 148.403 85.3341C145.645 85.3341 143.666 83.1671 143.666 80.5697H143.67ZM151.797 80.5697V80.5354C151.797 78.5641 150.329 76.945 148.403 76.945C146.477 76.945 145.061 78.5641 145.061 80.5012V80.5354C145.061 82.5067 146.511 84.1063 148.437 84.1063C150.363 84.1063 151.793 82.5067 151.793 80.5697H151.797ZM148.052 74.3671C148.052 74.2791 148.087 74.1714 148.14 74.103L149.2 72.4838C149.375 72.2197 149.57 72.0729 149.837 72.0729C150.261 72.0729 150.791 72.3566 150.791 72.6061C150.791 72.748 150.684 72.8703 150.543 73.017L149.22 74.2791C148.938 74.5628 148.724 74.6166 148.388 74.6166C148.194 74.6166 148.052 74.509 148.052 74.3671Z" fill="black"/>
<path d="M155.654 76.5341C155.654 76.1623 155.956 75.8395 156.325 75.8395C156.695 75.8395 157.016 76.1428 157.016 76.5341V77.4782C157.619 76.5732 158.431 75.7368 159.968 75.7368C161.505 75.7368 162.405 76.5341 162.901 77.5662C163.553 76.5537 164.525 75.7368 166.116 75.7368C168.217 75.7368 169.511 77.1602 169.511 79.4348V84.5172C169.511 84.9085 169.209 85.2118 168.839 85.2118C168.47 85.2118 168.149 84.9085 168.149 84.5172V79.7528C168.149 77.9771 167.264 76.9792 165.78 76.9792C164.404 76.9792 163.271 78.0113 163.271 79.8212V84.5123C163.271 84.9036 162.969 85.2069 162.58 85.2069C162.191 85.2069 161.909 84.9036 161.909 84.5123V79.7136C161.909 77.9918 161.009 76.9743 159.56 76.9743C158.11 76.9743 157.016 78.1826 157.016 79.8702V84.5074C157.016 84.8987 156.734 85.202 156.345 85.202C155.956 85.202 155.654 84.8987 155.654 84.5074V76.5292V76.5341Z" fill="black"/>
<path d="M172.463 73.0513C172.463 72.6061 172.818 72.3224 173.261 72.3224C173.703 72.3224 174.073 72.6061 174.073 73.0513V73.2812C174.073 73.7067 173.718 74.01 173.261 74.01C172.803 74.01 172.463 73.7067 172.463 73.2812V73.0513ZM172.584 76.5341C172.584 76.1623 172.886 75.8395 173.256 75.8395C173.625 75.8395 173.946 76.1428 173.946 76.5341V84.5123C173.946 84.9036 173.664 85.2069 173.275 85.2069C172.886 85.2069 172.584 84.9036 172.584 84.5123V76.5341Z" fill="black"/>
<path d="M176.543 80.5697V80.5354C176.543 77.9429 178.557 75.7368 181.227 75.7368C182.745 75.7368 183.771 76.3237 184.583 77.0673C184.69 77.1553 184.797 77.3314 184.797 77.5466C184.797 77.9184 184.495 78.207 184.145 78.207C183.97 78.207 183.81 78.1336 183.703 78.0456C183.051 77.4439 182.307 76.945 181.213 76.945C179.355 76.945 177.944 78.525 177.944 80.5012V80.5354C177.944 82.5263 179.394 84.1063 181.3 84.1063C182.341 84.1063 183.173 83.6269 183.844 82.9861C183.931 82.8981 184.058 82.81 184.233 82.81C184.568 82.81 184.85 83.1133 184.85 83.4313C184.85 83.5927 184.782 83.7492 184.675 83.8568C183.81 84.7275 182.769 85.3341 181.232 85.3341C178.562 85.3341 176.548 83.1475 176.548 80.5697H176.543Z" fill="black"/>
<path d="M186.514 82.4529V82.4187C186.514 80.4816 188.105 79.4495 190.42 79.4495C191.587 79.4495 192.419 79.6109 193.231 79.8408V79.5229C193.231 77.8695 192.224 77.0183 190.507 77.0183C189.588 77.0183 188.81 77.2336 188.139 77.532C188.051 77.5662 187.964 77.5858 187.891 77.5858C187.574 77.5858 187.287 77.3216 187.287 76.9988C187.287 76.7151 187.482 76.4998 187.657 76.4314C188.557 76.04 189.476 75.8101 190.643 75.8101C191.932 75.8101 192.924 76.1476 193.596 76.8227C194.213 77.4439 194.534 78.3342 194.534 79.5082V84.5368C194.534 84.9281 194.252 85.2118 193.883 85.2118C193.513 85.2118 193.231 84.9281 193.231 84.571V83.7345C192.594 84.571 191.533 85.3145 189.928 85.3145C188.231 85.3145 186.519 84.3362 186.519 82.4529H186.514ZM193.245 81.7388V80.8485C192.574 80.6528 191.674 80.4571 190.561 80.4571C188.849 80.4571 187.891 81.2056 187.891 82.36V82.3942C187.891 83.5486 188.951 84.2237 190.186 84.2237C191.864 84.2237 193.245 83.1916 193.245 81.7339V81.7388Z" fill="black"/>
<path d="M196.941 84.1405C196.82 84.0525 196.693 83.8764 196.693 83.6416C196.693 83.3236 196.956 83.0546 197.296 83.0546C197.418 83.0546 197.544 83.0888 197.632 83.1622C198.566 83.803 199.539 84.1405 200.531 84.1405C201.625 84.1405 202.423 83.5731 202.423 82.6828V82.6486C202.423 81.7241 201.343 81.367 200.142 81.0295C198.712 80.6235 197.121 80.1245 197.121 78.4369V78.4027C197.121 76.8227 198.43 75.771 200.229 75.771C201.202 75.771 202.262 76.0743 203.142 76.5537C203.318 76.6613 203.478 76.8569 203.478 77.1211C203.478 77.439 203.215 77.7081 202.875 77.7081C202.753 77.7081 202.646 77.6738 202.573 77.6347C201.795 77.1896 200.964 76.9254 200.185 76.9254C199.106 76.9254 198.42 77.4928 198.42 78.2608V78.2951C198.42 79.1658 199.553 79.5033 200.769 79.8751C202.184 80.3006 203.702 80.8534 203.702 82.5067V82.541C203.702 84.2824 202.272 85.295 200.448 85.295C199.247 85.295 197.919 84.8498 196.932 84.1405H196.941Z" fill="black"/>
</g>
<defs>
<clipPath id="clip0_6101_5632">
<rect width="261" height="88" fill="white"/>
</clipPath>
</defs>
</svg>
